<svg width="96" height="25" viewBox="0 0 96 25" fill="none" xmlns="http://www.w3.org/2000/svg">
<path fill-rule="evenodd" clip-rule="evenodd" d="M60.1591 5.92098C60.1591 5.42852 59.7599 5.0293 59.2674 5.0293H51.7591C51.2667 5.0293 50.8674 5.42852 50.8674 5.92098V14.0086C50.8674 14.5011 51.2667 14.9003 51.7591 14.9003H54.9774C55.4699 14.9003 55.8691 14.5011 55.8691 14.0086V10.461C55.8691 9.96849 56.2683 9.56927 56.7608 9.56927H59.1218V9.56927C59.6581 9.56927 60.1591 9.16489 60.1591 8.6286V5.92098ZM62.8107 11.5888C62.4496 11.5888 62.1768 11.9204 62.1768 12.2815V12.2815C62.1768 14.0798 61.0606 15.1116 59.1218 15.1116H56.9257C56.4332 15.1116 56.034 15.5108 56.034 16.0032V18.6714C56.034 19.1639 56.4332 19.5631 56.9257 19.5631H60.1793C64.2037 19.5631 67.6994 16.674 67.6994 12.252V12.252C67.6994 11.8767 67.3835 11.5888 67.0083 11.5888H62.8107ZM51.7591 24.1729C51.2667 24.1729 50.8674 23.7737 50.8674 23.2812V20.5936C50.8674 20.1012 51.2667 19.702 51.7591 19.702H54.9774C55.4699 19.702 55.8691 20.1012 55.8691 20.5936V23.2812C55.8691 23.7737 55.4699 24.1729 54.9774 24.1729H51.7591Z" fill="#0038DE"/>
<path d="M82.4903 24.246C82.244 24.246 82.0444 24.0464 82.0444 23.8002V5.47514C82.0444 5.22891 82.244 5.0293 82.4903 5.0293H85.606C85.8523 5.0293 86.0519 5.22891 86.0519 5.47514V20.4842C86.0519 20.7304 86.2515 20.93 86.4977 20.93H93.9792C94.2254 20.93 94.425 21.1297 94.425 21.3759V23.8002C94.425 24.0464 94.2254 24.246 93.9792 24.246H82.4903Z" fill="#0038DE"/>
<path d="M68.9534 24.246C68.7072 24.246 68.5076 24.0464 68.5076 23.8002V5.47514C68.5076 5.22891 68.7072 5.0293 68.9534 5.0293H80.7475C80.9938 5.0293 81.1934 5.22891 81.1934 5.47514V7.89944C81.1934 8.14567 80.9938 8.34528 80.7475 8.34528H72.9609C72.7146 8.34528 72.515 8.54489 72.515 8.79112V12.5072C72.515 12.7534 72.7146 12.953 72.9609 12.953H80.2566C80.5028 12.953 80.7024 13.1526 80.7024 13.3989V15.6501C80.7024 15.8963 80.5028 16.0959 80.2566 16.0959H72.9609C72.7146 16.0959 72.515 16.2955 72.515 16.5417V20.4842C72.515 20.7304 72.7146 20.93 72.9609 20.93H80.7475C80.9938 20.93 81.1934 21.1297 81.1934 21.3759V23.8002C81.1934 24.0464 80.9938 24.246 80.7475 24.246H68.9534Z" fill="#0038DE"/>
<path d="M40.8231 24.5003C38.93 24.5003 37.2889 24.0963 35.9 23.2884C34.52 22.4805 33.454 21.3352 32.7021 19.8526C31.959 18.361 31.5874 16.5987 31.5874 14.5656V14.539C31.5874 12.497 31.9634 10.7347 32.7153 9.25206C33.4673 7.76941 34.5333 6.62857 35.9133 5.82954C37.3022 5.02163 38.9388 4.61768 40.8231 4.61768C42.7162 4.61768 44.3528 5.02163 45.7329 5.82954C47.1129 6.63745 48.1789 7.78273 48.9309 9.26538C49.6828 10.7392 50.0588 12.497 50.0588 14.539V14.5656C50.0588 16.5987 49.6828 18.361 48.9309 19.8526C48.1789 21.3352 47.1129 22.4805 45.7329 23.2884C44.3617 24.0963 42.7251 24.5003 40.8231 24.5003ZM40.8231 21.0911C41.8847 21.0911 42.8003 20.8247 43.5699 20.292C44.3396 19.7505 44.9323 18.9914 45.3481 18.0148C45.7638 17.0382 45.9717 15.8885 45.9717 14.5656V14.539C45.9717 13.1984 45.7594 12.0442 45.3348 11.0765C44.919 10.0999 44.3219 9.34972 43.5434 8.82591C42.7737 8.29322 41.867 8.02688 40.8231 8.02688C39.7792 8.02688 38.868 8.28879 38.0895 8.8126C37.3199 9.33641 36.7228 10.0866 36.2981 11.0632C35.8824 12.0309 35.6745 13.1895 35.6745 14.539V14.5656C35.6745 15.8973 35.8824 17.0515 36.2981 18.0281C36.7228 19.0047 37.3199 19.7593 38.0895 20.292C38.8592 20.8247 39.7704 21.0911 40.8231 21.0911Z" fill="#0038DE"/>
<path d="M15.8289 24.246C15.5827 24.246 15.3831 24.0464 15.3831 23.8002V5.47514C15.3831 5.22891 15.5827 5.0293 15.8289 5.0293H23.2918C24.7249 5.0293 25.9501 5.27345 26.9675 5.76174C27.9937 6.25004 28.7766 6.95585 29.3162 7.87918C29.8647 8.79363 30.1389 9.89452 30.1389 11.1818V11.2085C30.1389 12.4692 29.8249 13.5923 29.1968 14.5777C28.6692 15.4173 27.9811 16.0507 27.1325 16.4779C26.8944 16.5977 26.7856 16.8883 26.9111 17.1235L30.3599 23.5904C30.5183 23.8874 30.3031 24.246 29.9665 24.246H26.4438C26.2765 24.246 26.1233 24.1524 26.047 24.0035L22.6441 17.3638C22.6181 17.313 22.5659 17.2811 22.5089 17.2811V17.2811C22.4735 17.2811 22.4381 17.2811 22.4027 17.2811H19.8363C19.5901 17.2811 19.3905 17.4807 19.3905 17.727V23.8002C19.3905 24.0464 19.1909 24.246 18.9447 24.246H15.8289ZM19.3905 13.7856C19.3905 14.0319 19.5901 14.2315 19.8363 14.2315H22.8539C23.8535 14.2315 24.632 13.9651 25.1894 13.4325C25.7555 12.8909 26.0386 12.1496 26.0386 11.2085V11.1818C26.0386 10.2585 25.7467 9.52607 25.1628 8.98451C24.5789 8.44294 23.7916 8.17216 22.8008 8.17216H19.8363C19.5901 8.17216 19.3905 8.37177 19.3905 8.618V13.7856Z" fill="#0038DE"/>
<path d="M2.46283 18.1867C2.2166 18.1867 2.01699 17.9871 2.01699 17.7409V15.4897C2.01699 15.2434 2.2166 15.0438 2.46283 15.0438H6.71446C7.8645 15.0438 8.75799 14.7509 9.39493 14.1649C10.0407 13.5701 10.3636 12.7266 10.3636 11.6346V11.608C10.3636 10.516 10.0407 9.677 9.39493 9.09104C8.75799 8.50509 7.8645 8.21211 6.71446 8.21211H2.46283C2.2166 8.21211 2.01699 8.0125 2.01699 7.76627V5.47514C2.01699 5.22891 2.2166 5.0293 2.46283 5.0293H7.69641C9.04108 5.0293 10.2177 5.30452 11.2262 5.85496C12.2346 6.39653 13.0176 7.16005 13.5749 8.14552C14.1411 9.131 14.4241 10.2807 14.4241 11.5947V11.6213C14.4241 12.9442 14.1411 14.0983 13.5749 15.0838C13.0176 16.0693 12.2346 16.8328 11.2262 17.3743C10.2177 17.9159 9.04108 18.1867 7.69641 18.1867H2.46283ZM0.445842 24.246C0.19961 24.246 0 24.0464 0 23.8002V5.47514C0 5.22891 0.19961 5.0293 0.445842 5.0293H3.5616C3.80783 5.0293 4.00744 5.22891 4.00744 5.47514V23.8002C4.00744 24.0464 3.80783 24.246 3.5616 24.246H0.445842Z" fill="#0038DE"/>
<rect x="91.8894" y="0.5" width="4.10931" height="4.12403" rx="0.445843" fill="#FF5C39"/>
</svg>
